<?xml version="1.0" encoding="utf-8"?>
<!-- Generator: Adobe Illustrator 22.0.1, SVG Export Plug-In . SVG Version: 6.00 Build 0)  -->
<svg version="1.1" id="Ebene_1" xmlns="http://www.w3.org/2000/svg" xmlns:xlink="http://www.w3.org/1999/xlink" x="0px" y="0px"
	 width="378.1px" height="141.4px" viewBox="0 0 378.1 141.4" enable-background="new 0 0 378.1 141.4" xml:space="preserve">
<g>
	<g>
		<linearGradient id="SVGID_1_" gradientUnits="userSpaceOnUse" x1="39.5929" y1="46.8645" x2="368.6202" y2="46.8645">
			<stop  offset="0" style="stop-color:#FFFFFF"/>
			<stop  offset="5.533862e-02" style="stop-color:#B8E3F6"/>
			<stop  offset="0.1082" style="stop-color:#7BCCEF"/>
			<stop  offset="0.1562" style="stop-color:#4CB9E9"/>
			<stop  offset="0.1984" style="stop-color:#2AACE5"/>
			<stop  offset="0.2332" style="stop-color:#15A4E3"/>
			<stop  offset="0.2562" style="stop-color:#0EA1E2"/>
			<stop  offset="0.7305" style="stop-color:#0EA1E2"/>
			<stop  offset="0.8528" style="stop-color:#82CEF0"/>
			<stop  offset="0.9544" style="stop-color:#DCF1FB"/>
			<stop  offset="1" style="stop-color:#FFFFFF"/>
		</linearGradient>
		<path fill="url(#SVGID_1_)" d="M237.5,13.5c11.5,5.5,29.3,14,39.3,16.6c9.8,2.5,33.2,6.3,47.1,8.2c5.4,0.7,11,2.3,17.1,5.4
			c21.3,10.7,25.9,27.8,27.6,41.3c0,0.1,0,0.3-0.1,0.3c-0.1,0.1-0.4,0.1-0.6,0.1c-0.2,0-0.3-0.2-0.3-0.3
			c-3.7-13.1-9.7-29.5-27.8-37.5c-4.7-2.1-12.4-3.6-18.3-4.2c-16.8-1.7-26.3-2-45.4-5.7c-10.6-2.1-35.3-11.2-43.5-14.7
			c-27.4-11.8-62.5-8-78.1-7.2c-18.9,0.9-31.2,13.1-62.1,21.9c-8.9,2.5-16.5,4.6-23,7.3C52.7,51.8,46,73.4,40.7,89.4
			c-0.1,0.2-0.2,0.4-0.4,0.4c-0.1,0-0.3,0-0.4-0.1c-0.2-0.1-0.3-0.2-0.3-0.5c4.8-23.6,10.1-40.8,26.7-48.9c6.2-3,13.7-5.7,21.7-8.8
			c33-12.6,43.9-25.6,70-26.6C181.2,3.9,212.1,1.5,237.5,13.5z"/>
	</g>
</g>
<g>
	<path fill="#0EA1E2" d="M17.5,132.6c0,1.7,0.3,2,2.3,2.2v0.8c-1.3-0.1-1.9-0.2-2.7-0.2c-0.8,0-1.4,0-2.8,0.2v-0.8l0.3,0
		c1.6-0.2,1.8-0.4,1.9-2.2l0.6-16.4v-0.3c0-1.4-0.4-1.8-2.3-1.9v-0.8c1,0.1,1.5,0.1,2.2,0.1c0.9,0,1.6,0,2.8-0.2l4.9,16.6l4.9-16.6
		c1.5,0.1,2.1,0.2,2.8,0.2c0.6,0,1.1,0,2.2-0.1v0.8c-2,0.2-2.2,0.4-2.3,2.2l0.3,16.4c0,1.8,0.3,2,2.3,2.2v0.8
		c-1.6-0.2-2.4-0.3-3.5-0.3c-1.1,0-1.9,0.1-3.5,0.3v-0.8c1.9-0.2,2.3-0.5,2.3-2.2l-0.3-16.9l-5.7,19.2h-0.5L18,115.7L17.5,132.6z"/>
	<path fill="#0EA1E2" d="M47.6,130.4c-0.3,3.5-2.1,5.5-4.8,5.5c-3.4,0-5.5-3.2-5.5-8.2c0-4.9,2.2-8.2,5.3-8.2c3.1,0,4.9,2.8,5,7.8
		h-7.9c0.1,3,0.2,4.2,0.8,5.5c0.5,1.3,1.5,2,2.6,2c1.9,0,3.1-1.6,3.5-4.4H47.6z M45.2,126.1c-0.1-3.9-1-5.8-2.7-5.8
		c-1.6,0-2.6,2.1-2.8,5.8H45.2z"/>
	<path fill="#0EA1E2" d="M55.9,135.6c-1.4-0.2-2.1-0.2-3-0.2c-0.9,0-1.6,0-3,0.2V135c1.6-0.1,1.8-0.4,1.8-1.8v-10.4
		c0-1.8-0.2-2.1-1.5-2.1c0,0-0.2,0-0.3,0V120c2-0.3,2.8-0.5,3.6-0.8c0.2,1.1,0.2,2,0.3,3.2c0.5-1.9,1.7-3,3.1-3c1.4,0,2.3,1,2.3,2.6
		c0,1-0.5,1.7-1.3,1.7c-0.7,0-1.2-0.5-1.2-1.1c0-0.2,0-0.3,0.1-0.6c0-0.2,0.1-0.4,0.1-0.5c0-0.4-0.3-0.7-0.7-0.7
		c-1.4,0-2.2,2-2.2,5.4v7c0,1.5,0.3,1.7,1.8,1.8V135.6z"/>
	<path fill="#0EA1E2" d="M70.2,124.6h-0.7c-0.4-2.8-1.4-4.3-3-4.3c-2,0-3.1,2.7-3.1,7.7c0,4.5,1.1,6.8,3.1,6.8
		c1.6,0,2.6-1.5,2.9-4.4h1.1c-0.3,3.6-1.9,5.5-4.3,5.5c-3.2,0-5.4-3.2-5.4-8.1c0-5,2.2-8.4,5.4-8.4c1.2,0,2,0.4,2.8,1.4l0.6-1.7h0.5
		V124.6z"/>
	<path fill="#0EA1E2" d="M83.3,130.4c-0.3,3.5-2.1,5.5-4.8,5.5c-3.4,0-5.5-3.2-5.5-8.2c0-4.9,2.2-8.2,5.3-8.2c3.1,0,4.9,2.8,5,7.8
		h-7.9c0.1,3,0.2,4.2,0.8,5.5c0.5,1.3,1.5,2,2.6,2c1.9,0,3.1-1.6,3.5-4.4H83.3z M80.9,126.1c-0.1-3.9-1-5.8-2.7-5.8
		c-1.6,0-2.6,2.1-2.8,5.8H80.9z"/>
	<path fill="#0EA1E2" d="M98.3,135c-1.8,0.3-2.8,0.5-3.8,0.9c-0.2-1-0.3-1.6-0.4-2.6c-0.8,1.8-1.8,2.7-3.3,2.7c-2.9,0-5-3.4-5-8.2
		s2-8.2,4.9-8.2c1.4,0,2.3,0.7,3.1,2.4v-5.6c0-1.7-0.2-2-1.8-2v-0.6c1.6-0.2,2.8-0.4,4.2-0.9v19.2c0,2,0.2,2.2,2,2.3V135z
		 M88.4,127.7c0,4.8,1,7.3,2.8,7.3c1.7,0,2.8-2.4,2.8-6.6c0-5.2-1-7.9-2.9-7.9C89.3,120.5,88.4,122.9,88.4,127.7z"/>
	<path fill="#0EA1E2" d="M110.6,130.4c-0.3,3.5-2.1,5.5-4.8,5.5c-3.4,0-5.5-3.2-5.5-8.2c0-4.9,2.2-8.2,5.3-8.2c3.1,0,4.9,2.8,5,7.8
		h-7.9c0.1,3,0.2,4.2,0.8,5.5c0.5,1.3,1.5,2,2.6,2c1.9,0,3.1-1.6,3.5-4.4H110.6z M108.2,126.1c-0.1-3.9-1-5.8-2.7-5.8
		c-1.6,0-2.6,2.1-2.8,5.8H108.2z"/>
	<path fill="#0EA1E2" d="M113.5,130.4h0.7c0.4,2.9,1.5,4.5,3.4,4.5c1.5,0,2.7-1.3,2.7-2.9c0-1.4-0.6-2.1-2.5-3.2
		c-1.8-1-2.6-1.5-3.2-2.1c-0.6-0.6-0.9-1.7-0.9-2.8c0-2.6,1.7-4.4,4.2-4.4c1.1,0,1.9,0.3,2.7,1l0.4-1.3h0.6v5.2h-0.7
		c-0.2-2.7-1.1-3.9-2.7-3.9c-1.4,0-2.4,1.1-2.4,2.7c0,1.3,0.5,1.9,2.4,3c1.4,0.8,2.2,1.3,2.8,1.8c1,0.8,1.5,1.9,1.5,3.2
		c0,2.8-1.8,4.8-4.5,4.8c-1.3,0-2.3-0.4-3.2-1.4l-0.6,1.5h-0.5V130.4z"/>
	<path fill="#0EA1E2" d="M124,125.9h7v1.4h-7V125.9z"/>
	<path fill="#0EA1E2" d="M139.3,113.3c1.9,0,3.3,0.5,4.2,1.5c0.9,1,1.4,2.4,1.4,3.9c0,2.4-1.1,4-3.2,5c2.6,0.6,4.1,2.6,4.1,5.5
		c0,2.4-1.2,4.6-3,5.6c-1,0.6-2,0.8-3.7,0.8h-6.8v-0.8c1.9-0.2,2.1-0.4,2.2-2.2v-16.2c0-1.8-0.3-2-2.2-2.2v-0.8H139.3z M138.3,123.4
		c1.7,0,2.6-0.4,3.2-1.5c0.5-0.8,0.7-1.8,0.7-3.2c0-1.7-0.5-3.2-1.2-3.8c-0.5-0.4-1.3-0.7-2.3-0.7h-1.8v9.1H138.3z M136.9,132.8
		c0,1.5,0.2,1.7,1.6,1.7h0.6c2.5,0,3.9-1.9,3.9-5.3c0-1.7-0.5-3.3-1.3-4c-0.5-0.5-1.5-0.8-2.7-0.8h-2.1V132.8z"/>
	<path fill="#0EA1E2" d="M158.7,130.4c-0.3,3.5-2.1,5.5-4.8,5.5c-3.4,0-5.5-3.2-5.5-8.2c0-4.9,2.2-8.2,5.3-8.2c3.1,0,4.9,2.8,5,7.8
		h-7.9c0.1,3,0.2,4.2,0.8,5.5c0.5,1.3,1.5,2,2.6,2c1.9,0,3.1-1.6,3.5-4.4H158.7z M156.3,126.1c-0.1-3.9-1-5.8-2.7-5.8
		c-1.6,0-2.6,2.1-2.8,5.8H156.3z"/>
	<path fill="#0EA1E2" d="M161,120.2c1.7-0.3,2.6-0.5,3.7-1c0.2,0.8,0.2,1.5,0.3,2.9c1-1.8,2.1-2.6,3.7-2.6c1.4,0,2.6,0.7,3.3,1.9
		c0.4,0.8,0.7,2,0.7,3.6v8.2c0,1.4,0.3,1.7,1.8,1.8v0.7c-1.4-0.2-2-0.2-3-0.2c-0.9,0-1.6,0-3,0.2V135c1.4-0.1,1.7-0.4,1.7-1.7v-8.4
		c0-2.7-0.7-3.9-2.3-3.9c-1,0-1.8,0.5-2.3,1.3c-0.4,0.7-0.5,1.3-0.5,2.7v8.2c0,1.3,0.3,1.6,1.7,1.7v0.7c-1.3-0.2-2.1-0.2-2.9-0.2
		c-1,0-1.6,0-3,0.2V135c1.6-0.1,1.8-0.4,1.8-1.8v-10.3c0-2-0.1-2-1.8-2.1V120.2z"/>
	<path fill="#0EA1E2" d="M183.7,120.6h-2.9c-1.7,0-2.3,0.7-3.1,3.5H177l0.6-4.3h9.1l-7.3,14.9h3.1c1.7,0.1,2.5-0.7,3.3-3.9h0.7
		l-0.7,4.8h-9.4L183.7,120.6z"/>
	<path fill="#0EA1E2" d="M202.9,135.6c-1.6-0.2-2.4-0.3-3.4-0.3s-1.8,0.1-3.4,0.3v-0.8c1.9-0.2,2.1-0.5,2.2-2.2v-16.4
		c0-1.8-0.3-2-2.2-2.2v-0.8c1.6,0.2,2.4,0.2,3.4,0.2s1.8-0.1,3.4-0.2v0.8c-1.9,0.2-2.1,0.5-2.1,2.2v16.4c0,1.8,0.2,2,2.1,2.2V135.6z
		"/>
	<path fill="#0EA1E2" d="M204.8,120.2c1.7-0.3,2.6-0.5,3.7-1c0.2,0.8,0.2,1.5,0.3,2.9c1-1.8,2.1-2.6,3.7-2.6c1.4,0,2.6,0.7,3.3,1.9
		c0.4,0.8,0.7,2,0.7,3.6v8.2c0,1.4,0.3,1.7,1.8,1.8v0.7c-1.4-0.2-2-0.2-3-0.2c-0.9,0-1.6,0-3,0.2V135c1.4-0.1,1.7-0.4,1.7-1.7v-8.4
		c0-2.7-0.7-3.9-2.3-3.9c-1,0-1.8,0.5-2.3,1.3c-0.4,0.7-0.5,1.3-0.5,2.7v8.2c0,1.3,0.3,1.6,1.7,1.7v0.7c-1.3-0.2-2.1-0.2-2.9-0.2
		c-1,0-1.6,0-3,0.2V135c1.6-0.1,1.8-0.4,1.8-1.8v-10.3c0-2-0.1-2-1.8-2.1V120.2z"/>
	<path fill="#0EA1E2" d="M220,120.2c1.7-0.3,2.6-0.5,3.7-1c0.2,0.8,0.2,1.5,0.3,2.9c1-1.8,2.1-2.6,3.7-2.6c1.4,0,2.6,0.7,3.3,1.9
		c0.4,0.8,0.7,2,0.7,3.6v8.2c0,1.4,0.3,1.7,1.8,1.8v0.7c-1.4-0.2-2-0.2-3-0.2c-0.9,0-1.6,0-3,0.2V135c1.4-0.1,1.7-0.4,1.7-1.7v-8.4
		c0-2.7-0.7-3.9-2.3-3.9c-1,0-1.8,0.5-2.3,1.3c-0.4,0.7-0.5,1.3-0.5,2.7v8.2c0,1.3,0.3,1.6,1.7,1.7v0.7c-1.3-0.2-2-0.2-2.9-0.2
		c-1,0-1.6,0-3,0.2V135c1.6-0.1,1.8-0.4,1.8-1.8v-10.3c0-2-0.1-2-1.8-2.1V120.2z"/>
	<path fill="#0EA1E2" d="M244,120.8c1.2,1.4,2,4.1,2,6.8c0,4.8-2.2,8.3-5.3,8.3c-3.1,0-5.3-3.4-5.3-8.2c0-4.9,2.3-8.3,5.5-8.3
		C242.1,119.4,243.1,119.9,244,120.8z M237.9,127.7c0,4.8,1,7.3,2.8,7.3c1.8,0,2.8-2.5,2.8-7.3c0-5-0.9-7.5-2.8-7.5
		C238.9,120.2,237.9,122.9,237.9,127.7z"/>
	<path fill="#0EA1E2" d="M252.9,135.9l-4.2-14.1c-0.4-1.2-0.6-1.4-2-1.5v-0.7c1.3,0.1,2.4,0.2,3,0.2c0.8,0,1.5-0.1,2.9-0.2v0.7
		c-1,0-1.5,0.2-1.5,0.7c0,0.2,0.1,0.5,0.2,0.8l2.7,9.7l2.9-9.6c0.1-0.4,0.2-0.8,0.2-1c0-0.4-0.5-0.6-1.4-0.6v-0.7
		c0.9,0.1,1.6,0.1,2.1,0.1c0.4,0,1.2,0,2.1-0.1v0.7c-1.3,0.1-1.6,0.3-2,1.6l-4.3,13.9H252.9z"/>
	<path fill="#0EA1E2" d="M272,135.5c-0.7,0.2-1.1,0.2-1.6,0.2c-1.3,0-1.9-0.8-2.1-2.7c-0.8,1.9-1.8,2.8-3.6,2.8
		c-2.2,0-3.8-1.7-3.8-4.3c0-1.7,0.7-3,2-4c1.4-1,2.9-1.6,4.9-1.9v-2.4c0-2-0.7-3-2-3c-1.2,0-2.1,0.7-2.1,1.8v0.4c0,0.2,0,0.4,0,0.6
		c0,0.9-0.4,1.4-1.2,1.4c-0.6,0-1-0.4-1-1.1c0-2.2,2-4,4.5-4c1.6,0,2.9,0.7,3.6,2c0.4,0.7,0.6,1.7,0.6,3.3v7c0,2.2,0.3,3,1,3
		c0.2,0,0.3,0,0.7-0.1V135.5z M267.9,126.6c-3.2,0.7-4.5,2.1-4.5,4.8c0,1.9,0.8,3,2.1,3c1.6,0,2.4-1.6,2.4-4.9V126.6z"/>
	<path fill="#0EA1E2" d="M280.9,134.9c-1,0.7-1.7,1-2.6,1c-1.2,0-2.1-0.5-2.6-1.3c-0.5-0.8-0.6-1.6-0.6-3.5v-0.3v-0.2l0.1-9.6h-1.7
		V120c1.8,0,2.8-1.6,3.3-5h0.8l0,4.8h3.1v1.1h-3.1v9.9c0,2.8,0.3,3.7,1.6,3.7c0.5,0,1-0.2,1.7-0.7V134.9z"/>
	<path fill="#0EA1E2" d="M286.5,133.2c0,1.4,0.3,1.7,1.8,1.8v0.7c-1.5-0.2-2.2-0.2-3-0.2c-0.9,0-1.6,0-3,0.2V135
		c1.6-0.1,1.8-0.4,1.8-1.8v-10.5c0-1.7-0.2-1.9-1.8-2v-0.6c1.6-0.2,2.8-0.4,4.2-0.9V133.2z M286.9,115.1c0,0.9-0.8,1.6-1.6,1.6
		c-0.9,0-1.7-0.7-1.7-1.6c0-0.9,0.8-1.6,1.7-1.6C286.1,113.5,286.9,114.2,286.9,115.1z"/>
	<path fill="#0EA1E2" d="M299,120.8c1.2,1.4,2,4.1,2,6.8c0,4.8-2.2,8.3-5.3,8.3c-3.1,0-5.3-3.4-5.3-8.2c0-4.9,2.3-8.3,5.5-8.3
		C297,119.4,298.1,119.9,299,120.8z M292.9,127.7c0,4.8,1,7.3,2.8,7.3c1.8,0,2.8-2.5,2.8-7.3c0-5-0.9-7.5-2.8-7.5
		C293.9,120.2,292.9,122.9,292.9,127.7z"/>
	<path fill="#0EA1E2" d="M303.1,120.2c1.7-0.3,2.6-0.5,3.7-1c0.2,0.8,0.2,1.5,0.3,2.9c1-1.8,2.1-2.6,3.7-2.6c1.4,0,2.6,0.7,3.3,1.9
		c0.4,0.8,0.7,2,0.7,3.6v8.2c0,1.4,0.3,1.7,1.8,1.8v0.7c-1.4-0.2-2-0.2-3-0.2c-0.9,0-1.6,0-3,0.2V135c1.4-0.1,1.7-0.4,1.7-1.7v-8.4
		c0-2.7-0.7-3.9-2.3-3.9c-1,0-1.8,0.5-2.3,1.3c-0.4,0.7-0.5,1.3-0.5,2.7v8.2c0,1.3,0.3,1.6,1.7,1.7v0.7c-1.3-0.2-2-0.2-2.9-0.2
		c-1,0-1.6,0-3,0.2V135c1.6-0.1,1.8-0.4,1.8-1.8v-10.3c0-2-0.1-2-1.8-2.1V120.2z"/>
	<path fill="#0EA1E2" d="M337.4,135.5h-12.1v-0.8c1.9-0.2,2.1-0.4,2.2-2.2v-16.3c0-1.8-0.3-2-2.2-2.2v-0.8c1.6,0.2,2.4,0.2,3.4,0.2
		c1,0,1.8-0.1,3.4-0.2v0.8c-1.9,0.2-2.1,0.5-2.1,2.2v16.2c0,1.7,0.3,2,1.7,2.1h1.9c2.2,0,2.8-0.7,3.6-4.3h0.8L337.4,135.5z"/>
	<path fill="#0EA1E2" d="M350.8,135.5c-0.7,0.2-1.1,0.2-1.6,0.2c-1.3,0-1.9-0.8-2.1-2.7c-0.8,1.9-1.8,2.8-3.6,2.8
		c-2.2,0-3.8-1.7-3.8-4.3c0-1.7,0.7-3,2-4c1.4-1,2.9-1.6,4.9-1.9v-2.4c0-2-0.6-3-2-3c-1.2,0-2.1,0.7-2.1,1.8v0.4c0,0.2,0,0.4,0,0.6
		c0,0.9-0.4,1.4-1.2,1.4c-0.7,0-1-0.4-1-1.1c0-2.2,2-4,4.5-4c1.6,0,2.9,0.7,3.6,2c0.4,0.7,0.6,1.7,0.6,3.3v7c0,2.2,0.3,3,1,3
		c0.2,0,0.3,0,0.7-0.1V135.5z M346.7,126.6c-3.2,0.7-4.5,2.1-4.5,4.8c0,1.9,0.8,3,2.1,3c1.6,0,2.4-1.6,2.4-4.9V126.6z"/>
	<path fill="#0EA1E2" d="M353.8,116.3c0-1.7-0.2-2-1.8-2v-0.6c1.6-0.2,2.9-0.4,4.2-0.9v9c0.9-1.8,1.8-2.5,3.2-2.5c2.9,0,5,3.4,5,8.2
		c0,4.8-2.1,8.2-5.1,8.2c-1.7,0-2.7-0.9-3.5-2.9l-1.3,2.9h-0.8V116.3z M356.2,128.1c0,2.6,0.2,4.1,0.8,5.2c0.5,1,1.3,1.6,2.1,1.6
		c1.8,0,2.8-2.5,2.8-7.3c0-4.8-0.9-7.2-2.8-7.2C357.2,120.4,356.2,123,356.2,128.1z"/>
</g>
<g>
	<g>
		<path fill="#FFFFFF" d="M12.2,52.3c-0.7-1.1-2.4-2-3.7-2l-4.8,0c-1.3,0-2.4,1.1-2.4,2.4l0,42.6c0,1.3,1.1,2.4,2.4,2.4h1.2
			c1.3,0,2.4-1.1,2.4-2.4l0-38.7c0-1.3,0.6-1.5,1.3-0.4l26,39.5c0.6,1,1.7,2.7,3.6,1.9c0.2-0.1,1.2-0.8,1.4-0.9c1.4-1.1,0.2-3,0.2-3
			L12.2,52.3z"/>
		<path fill="#FFFFFF" d="M73.7,52.7c0-1.3-0.6-2.4-1.9-2.4l-2.2,0c-2,0-1.9,2.4-1.9,2.4l0,42.6c0,1.3,1.1,2.4,2.4,2.4h1.2
			c1.3,0,2.4-1.1,2.4-2.4L73.7,52.7z"/>
	</g>
	<g>
		<path fill="#FFFFFF" d="M89.8,97.7c-1.3,0-2.4-1.1-2.4-2.4l0-42.6c0-1.3,1.1-2.4,2.4-2.4l35.6,0c1.3,0,3.5,0,4.9,0.1
			c0,0,3,0.1,4.9,0.6c1.9,0.5,3.3,1.2,4.3,2.1c1,0.9,1.7,2.1,2,3.5c0.3,1.4,0.5,3,0.5,4.8c0,1.3-0.1,2.5-0.3,3.5
			c-0.2,1-0.5,1.9-0.9,2.6c-0.4,0.7-0.8,1.4-1.3,1.9c-0.5,0.5-0.5,0.5-0.5,0.5c-0.5,0.4-1.6,1-2.3,1.4c-0.7,0.3-2,0.8-1,1
			c1,0.2,3.8,1.4,4.5,1.9c0,0,0,0,0.6,0.5c0.6,0.5,1.1,1.2,1.6,1.9c0.5,0.8,0.9,1.7,1.2,2.7c0.3,1,0.4,2.2,0.4,3.6
			c0,1.6-0.1,3.2-0.2,4.5c-0.2,1.4-0.5,2.6-1,3.7c-0.5,1.1-1.2,2-2.1,2.9c-0.9,0.8-2.1,1.5-3.6,2.1c-1.5,0.5-3.3,1-5.5,1.2
			c-2.2,0.3-5.4,0.3-5.4,0.3c-1.3,0-3.5,0.1-4.9,0.1H89.8z M119.3,70.1c1.3,0,3.5,0,4.9,0c0,0,1.4,0,2.9-0.1
			c1.5-0.1,2.8-0.2,3.8-0.5c1.1-0.2,1.9-0.5,2.6-0.9c0.7-0.4,1.2-0.9,1.5-1.6c0.4-0.6,0.6-1.4,0.7-2.3c0.1-0.9,0.2-2,0.2-3.2
			c0-1.3-0.1-2.4-0.4-3.2c-0.3-0.8-0.8-1.5-1.6-1.9c-0.8-0.4-1.8-0.7-3.1-0.9c-1.3-0.2-2.5-0.2-2.5-0.2c-1.3,0-3.5-0.1-4.9-0.1
			l-27.5,0c-1.3,0-2.4,1.1-2.4,2.4v10.1c0,1.3,1.1,2.4,2.4,2.4H119.3z M119.3,92.8c1.3,0,3.5,0,4.9,0c0,0,2,0,3.7-0.1
			c1.7-0.1,3.2-0.2,4.4-0.5c1.2-0.2,2.2-0.6,2.9-1c0.7-0.4,1.3-1,1.7-1.8c0.4-0.7,0.7-1.6,0.8-2.7c0.1-1,0.2-2.3,0.2-3.8
			c0-1.1-0.1-2.2-0.2-3c-0.1-0.9-0.4-1.6-0.8-2.2c-0.4-0.6-1-1.1-1.7-1.4c-0.7-0.4-1.7-0.6-2.9-0.8c-1.2-0.2-2.7-0.3-4.4-0.4
			c-1.7-0.1-3.7-0.1-3.7-0.1c-1.3,0-3.5,0-4.9,0l-23.4,0c-1.3,0-2.4,1.1-2.4,2.4v13c0,1.3,1.1,2.4,2.4,2.4L119.3,92.8z"/>
	</g>
	<g>
		<path fill="#FFFFFF" d="M156.2,52.7c0-1.3,1.1-2.4,2.4-2.4h1.2c1.3,0,2.4,1.1,2.4,2.4l0,42.6c0,1.3-1.1,2.4-2.4,2.4h-1.2
			c-1.3,0-2.4-1.1-2.4-2.4L156.2,52.7z"/>
	</g>
	<g>
		<path fill="#FFFFFF" d="M224.5,50.3c1.3,0,2.4,1.1,2.4,2.4l0,0.2c0,1.3-1.1,2.4-2.4,2.4h-19.4c-1.3,0-2.4,1.1-2.4,2.4v37.7
			c0,1.3-1.1,2.4-2.4,2.4h-1.2c-1.3,0-2.4-1.1-2.4-2.4l0-37.7c0-1.3-1.1-2.4-2.4-2.4l-19.4,0c-1.3,0-2.4-1.1-2.4-2.4v-0.2
			c0-1.3,1.1-2.4,2.4-2.4L224.5,50.3z"/>
	</g>
	<g>
		<path fill="#FFFFFF" d="M237,52.7c0-1.3,1.1-2.4,2.4-2.4h1.2c1.3,0,2.4,1.1,2.4,2.4v42.6c0,1.3-1.1,2.4-2.4,2.4h-1.2
			c-1.3,0-2.4-1.1-2.4-2.4V52.7z"/>
	</g>
	<g>
		<path fill="#FFFFFF" d="M291.2,49.3c1.3,0,3.5,0,4.9,0.1c0,0,4.4,0.1,6.9,0.6c2.5,0.4,4.6,1.1,6.3,2c1.6,0.9,2.9,2,3.8,3.4
			c0.9,1.4,1.5,3,1.9,4.8c0.4,1.8,0.7,3.9,0.7,6.2c0.1,2.3,0.1,4.9,0.1,7.6c0,2.8,0,5.3-0.1,7.6c-0.1,2.3-0.3,4.4-0.7,6.2
			c-0.4,1.8-1.1,3.4-1.9,4.8c-0.9,1.4-2.1,2.5-3.8,3.4c-1.6,0.9-3.7,1.6-6.3,2c-2.5,0.4-6.9,0.6-6.9,0.6c-1.3,0-3.5,0.1-4.9,0.1
			h-13.4c-1.3,0-3.5,0-4.9-0.1c0,0-4.4-0.1-6.9-0.6c-2.5-0.4-4.6-1.1-6.3-2c-1.6-0.9-2.9-2-3.8-3.4c-0.9-1.4-1.5-3-2-4.8
			c-0.4-1.8-0.6-3.9-0.7-6.2c-0.1-2.3-0.1-4.9-0.1-7.6c0-2.8,0-5.3,0.1-7.6c0.1-2.3,0.3-4.4,0.7-6.2c0.4-1.8,1.1-3.4,2-4.8
			c0.9-1.4,2.2-2.5,3.8-3.4c1.6-0.9,3.7-1.6,6.3-2c2.5-0.4,6.9-0.6,6.9-0.6c1.3,0,3.5-0.1,4.9-0.1H291.2z M291.2,93.7
			c1.3,0,3.5,0,4.9,0c0,0,2.5,0,4.3-0.2c1.8-0.2,3.4-0.5,4.6-0.9c1.2-0.5,2.1-1.2,2.8-2c0.7-0.9,1.1-2.1,1.4-3.5
			c0.3-1.5,0.5-3.3,0.5-5.4c0.1-2.1,0.1-4.7,0.1-7.6c0-3,0-5.5-0.1-7.6c-0.1-2.1-0.2-3.9-0.5-5.4c-0.3-1.5-0.8-2.6-1.4-3.5
			c-0.7-0.9-1.6-1.6-2.8-2c-1.2-0.5-2.7-0.8-4.5-0.9c-1.8-0.2-4.4-0.2-4.4-0.2c-1.3,0-3.5,0-4.9,0l-13.4,0c-1.3,0-3.5,0-4.9,0
			c0,0-2.5,0-4.4,0.2c-1.8,0.2-3.4,0.5-4.6,0.9c-1.2,0.5-2.1,1.2-2.8,2c-0.7,0.9-1.1,2.1-1.4,3.5c-0.3,1.5-0.5,3.3-0.5,5.4
			c0,2.1-0.1,4.7-0.1,7.6c0,3,0,5.5,0.1,7.6c0.1,2.1,0.2,3.9,0.5,5.4c0.3,1.5,0.8,2.6,1.4,3.5c0.6,0.9,1.6,1.6,2.8,2
			c1.2,0.5,2.7,0.8,4.6,0.9c1.8,0.2,4.4,0.2,4.4,0.2c1.3,0,3.5,0,4.9,0H291.2z"/>
	</g>
	<g>
		<path fill="#FFFFFF" d="M329.9,50.3h-1.5c-1.3,0-2.4,1.1-2.4,2.4v42.6c0,1.3,1.1,2.4,2.4,2.4h1.2c1.3,0,2.4-1.1,2.4-2.4V53
			C332.1,53,332.5,50.5,329.9,50.3z"/>
		<path fill="#FFFFFF" d="M374.1,50.3h-1.2c-1.3,0-2.4,1.1-2.4,2.4v42.5c0,0,0,2.4,2.6,2.5l1.1,0c1.3,0,2.4-1.1,2.4-2.4V52.7
			C376.5,51.4,375.4,50.3,374.1,50.3z"/>
	</g>
</g>
<rect fill="none" width="378.1" height="141.4"/>
</svg>
